<?xml version="1.0" encoding="utf-8"?>
<!-- Generator: Adobe Illustrator 23.0.4, SVG Export Plug-In . SVG Version: 6.00 Build 0)  -->
<svg version="1.1" xmlns="http://www.w3.org/2000/svg" xmlns:xlink="http://www.w3.org/1999/xlink" x="0px" y="0px"
	 viewBox="0 0 512 512" style="enable-background:new 0 0 512 512;" xml:space="preserve">
<style type="text/css">
	.st0{display:none;}
	.st1{display:inline;}
	.st2{fill:#FFFFFF;}
</style>
<g id="Layer_1" class="st0">
	<g class="st1">
		<path d="M29.1,164.4c0-1.3-1.3-2.6-2.5-2.6c-11.1,0-12.3,0-12.3-3V72.2c0-1.7,1.7-3.4,3.8-3.4h93.1c1.7,0,3.4,1.7,3.4,3.4v307.7
			c0,1.7-1.3,3.4-3,3.4H32c-1.3,0-3-1.3-3-3V164.4z"/>
		<path d="M129.3,161.4c0-53.1,34.9-92.7,88-92.7s88.8,39.5,88.8,92.7v127.9c0,54.4-36.1,93.9-88.8,93.9c-53.1,0-88-39.5-88-93.9
			V161.4z M210.9,287.7c0,5.5,2.6,8.5,6.8,8.5c3.8,0,6.8-3,6.8-8.5V163.1c0-5.5-2.5-8.5-6.8-8.5s-6.8,3-6.8,8.1V287.7z"/>
		<path d="M318.9,161.4c0-53.1,34.9-92.7,88-92.7s88.8,39.5,88.8,92.7v127.9c0,54.4-36.1,93.9-88.8,93.9c-53.1,0-88-39.5-88-93.9
			V161.4z M400.5,287.7c0,5.5,2.5,8.5,6.8,8.5c3.8,0,6.8-3,6.8-8.5V163.1c0-5.5-2.6-8.5-6.8-8.5s-6.8,3-6.8,8.1V287.7z"/>
	</g>
</g>
<g id="_x31_00">
	<g>
		<path class="st2" d="M258.7,134.8c29.6,0,50.1,20,50.1,44.8c0,8.9-2.8,17.5-8.7,24.1c-3.1,3.2-11.6,9.4-24.4,18.6
			c20.8,11.4,40.9,25.7,40.9,51.8c0,35.6-32.9,54.8-61.6,54.8c-34.5,0-59.3-19.4-59.3-49.7c0-15.1,6.7-23.4,13.6-29.3
			c5-4.3,16.9-12,27.1-18.3c-19.1-11.1-33.2-25.6-33.2-47C203.3,158,225.3,134.8,258.7,134.8z M258.7,318.3
			c19.5,0,31.4-12.7,31.4-34.2c-0.1-23.5-19-34.9-44.3-47.2c-14.9,8.8-23.5,22.6-23.5,40C222.2,304.6,239.4,318.3,258.7,318.3z
			 M254.8,145.2c-17.4,0-26.5,13.6-26.5,30c0,21.5,14.8,29.9,38.3,42c10.8-8.5,18.2-18.7,18.2-36.2
			C284.8,155.6,269.7,145.2,254.8,145.2z"/>
	</g>
</g>
</svg>
