<?xml version="1.0" encoding="utf-8"?>
<!-- Generator: Adobe Illustrator 23.0.4, SVG Export Plug-In . SVG Version: 6.00 Build 0)  -->
<svg version="1.1" xmlns="http://www.w3.org/2000/svg" xmlns:xlink="http://www.w3.org/1999/xlink" x="0px" y="0px"
	 viewBox="0 0 512 512" style="enable-background:new 0 0 512 512;" xml:space="preserve">
<style type="text/css">
	.st0{display:none;}
	.st1{display:inline;}
	.st2{fill:#FFFFFF;}
</style>
<g id="Layer_1" class="st0">
	<g class="st1">
		<path d="M29.1,164.4c0-1.3-1.3-2.6-2.5-2.6c-11.1,0-12.3,0-12.3-3V72.2c0-1.7,1.7-3.4,3.8-3.4h93.1c1.7,0,3.4,1.7,3.4,3.4v307.7
			c0,1.7-1.3,3.4-3,3.4H32c-1.3,0-3-1.3-3-3V164.4z"/>
		<path d="M129.3,161.4c0-53.1,34.9-92.7,88-92.7s88.8,39.5,88.8,92.7v127.9c0,54.4-36.1,93.9-88.8,93.9c-53.1,0-88-39.5-88-93.9
			V161.4z M210.9,287.7c0,5.5,2.6,8.5,6.8,8.5c3.8,0,6.8-3,6.8-8.5V163.1c0-5.5-2.5-8.5-6.8-8.5s-6.8,3-6.8,8.1V287.7z"/>
		<path d="M318.9,161.4c0-53.1,34.9-92.7,88-92.7s88.8,39.5,88.8,92.7v127.9c0,54.4-36.1,93.9-88.8,93.9c-53.1,0-88-39.5-88-93.9
			V161.4z M400.5,287.7c0,5.5,2.5,8.5,6.8,8.5c3.8,0,6.8-3,6.8-8.5V163.1c0-5.5-2.6-8.5-6.8-8.5s-6.8,3-6.8,8.1V287.7z"/>
	</g>
</g>
<g id="_x31_00" class="st0">
	<g class="st1">
		<path class="st2" d="M266,266.6c-12.1-4.3-31.4-18.3-31.4-35.3c0-11.5,6.8-20.9,26.7-36.3c17.7-13.4,25.7-21.9,25.7-32.2
			c0-10.2-6.8-18.6-19.3-18.6c-20.3,0-32.6,19.9-36.9,19.9c-4.9,0-13.7-7.5-13.7-15.4c0-4.5,1.7-7.5,5.9-11.5
			c9.7-8.2,23.6-11.1,33.2-11.1c28,0,48.8,24,48.8,47.8c0,12.4-4,23.5-21.4,37.3c-16.2,13-23.3,18.5-23.3,28
			c0,7.5,3.9,12.6,11.7,20.1L266,266.6z M258.5,329.4c-11.3,0-19.6-8.3-19.6-20.3c0-11.4,8-20.2,19.6-20.2
			c11.2,0,19.7,8.8,19.7,20.2C278.1,321.1,269.7,329.4,258.5,329.4z"/>
	</g>
</g>
<g id="Layer_3" class="st0">
	<g class="st1">
		<path class="st2" d="M93.9,248.7c94.2,0,188.1,0,282.1,0c0.1,1.1,0.2,2,0.3,3.3c1,0,1.9,0,2.8,0c12.9,0.1,25.9-0.3,38.8,0.4
			c23.1,1.1,43.1,18.6,48.2,41.3c6.8,30.6-13.4,60.5-44.6,64.6c-16.4,2.1-33.1,2.3-48.7-5.3c-3.9-1.9-7.5-4.1-11.4-6.1
			c-5.5,11.9-12.5,23-20.8,33.2c-8.3,10.1-17.8,19-28.3,27.1c0.9,0,1.8,0,2.6,0c32.2,0,64.3,0,96.5,0c1.8,0,3.7,0.1,5.5,0.6
			c5.7,1.6,9.4,7.2,8.6,13.1c-0.8,6.1-5.9,10.5-12.3,10.6c-13.1,0-26.2,0-39.2,0c-0.9,0-1.8,0-2.7,0c-2,7-4.2,8.7-11.4,8.7
			c-83.4,0-166.8,0-250.2,0c-4.1,0-7.5-1.1-9.4-5c-0.5-1.1-0.7-2.3-1.2-3.8c-0.8,0-1.7,0-2.6,0c-13.1,0-26.2,0-39.2,0
			c-9.5,0-15.4-9.5-11.1-17.6c1.8-3.5,4.7-5.6,8.6-6.3c1.4-0.2,2.9-0.3,4.4-0.3c32.1,0,64.2,0,96.3,0c0.9,0,1.8,0,2.7,0
			c0.1-0.2,0.1-0.3,0.2-0.5c-1.4-1-2.8-2.1-4.1-3.1c-29.1-22.6-47.2-52.2-55.8-87.8c-3.8-15.8-4.5-31.8-4.2-47.9
			C94,261.6,93.9,255.3,93.9,248.7z M376.3,280c-0.1,0.6-0.2,0.9-0.2,1.2c-0.1,12-1.7,23.9-4.4,35.6c-0.2,0.7,0.3,1.9,0.9,2.5
			c5.7,5.8,12.6,9.9,20.7,10.8c7.2,0.9,14.6,0.7,21.9,0.6c14.8-0.3,26.5-14.7,23.9-29.2c-2.3-12.8-12.4-21.4-25.5-21.5
			c-9.5-0.1-18.9,0-28.4,0C382.3,280,379.4,280,376.3,280z"/>
		<path class="st2" d="M265.7,111.5c0.9,11.8-3.2,22.3-8.4,32.4c-3.3,6.3-6.6,12.5-10.2,18.6c-6,10.3-6.6,21.3-4.2,32.6
			c0.8,3.7,2.2,7.2,3.5,10.7c1.2,3.2,2.8,6.4,0.3,9.6c-2.9,3.6-7,4.4-11.3,3.5c-9-1.9-14.6-7.8-18-16c-4.2-9.9-4.5-20.1-3.1-30.6
			c1.5-11.1,5.7-21.3,11-31.1c2.9-5.3,5.7-10.7,8.7-16c4.8-8.8,5.8-18,3-27.6c-1.8-6.3-3.4-12.6-5.1-18.9c-0.8-3.2-0.1-4.5,3-5.6
			c6-2,11.6-1.6,16.9,2.1c7.4,5.2,11.3,12.4,12.6,21.2C265,101.4,265.2,106.4,265.7,111.5z"/>
		<path class="st2" d="M330.8,112.7c-0.1,11.5-3.8,21.9-9.1,31.8c-1.5,2.8-3.1,5.7-4.9,8.3c-5.2,7.5-5.9,15.7-4.1,24.3
			c1.1,5.2,2.7,10.4,4.3,15.5c1.2,4-1.1,7.5-5.3,7.6c-10.7,0.4-17.7-4.1-21.8-14c-5.7-13.8-4.9-27.5,1.7-40.8
			c2.8-5.6,5.9-11.1,9.2-16.5c6-9.8,7.3-20,3.6-30.9c-1.1-3.3-1.7-6.7-2.4-10.1c-0.5-2.4,0.3-3.7,2.6-4.7c6.9-2.7,15.4,0.1,20.4,6.9
			c3.7,5,4.6,11,5.4,16.9C330.6,108.8,330.6,110.7,330.8,112.7z"/>
		<path class="st2" d="M194.3,109.9c0,15.4-4.4,26.5-10.5,37.1c-1,1.8-2,3.6-3.2,5.3c-5.7,8-6.3,16.8-4.1,26
			c1.1,4.8,2.4,9.7,4.2,14.4c1.2,3.2-1.1,7.4-5.1,7.5c-10.9,0.1-17.2-3.1-21.6-13.1c-6.7-15.1-5.1-30,2.5-44.4
			c2.8-5.3,5.8-10.5,8.8-15.7c4.9-8.5,6.2-17.4,3.3-26.8c-1.1-3.7-1.9-7.6-2.8-11.4c-0.8-3.8,0-5,3.7-6.1c8.7-2.6,18.7,3.2,22,12.7
			C193.3,101,194.3,106.8,194.3,109.9z"/>
		<path class="st2" d="M376.3,280c3.1,0,6,0,8.9,0c9.5,0,18.9-0.1,28.4,0c13.1,0.1,23.2,8.7,25.5,21.5c2.6,14.5-9.1,29-23.9,29.2
			c-7.3,0.1-14.7,0.3-21.9-0.6c-8-1-14.9-5-20.7-10.8c-0.6-0.6-1.1-1.8-0.9-2.5c2.7-11.7,4.3-23.6,4.4-35.6
			C376.2,281,376.2,280.7,376.3,280z"/>
	</g>
</g>
<g id="Layer_4">
	<g transform="translate(0.000000,640.000000) scale(0.100000,-0.100000)">
		<path class="st2" d="M3649.9,4807.4c-259.8-31.3-506.2-157.2-779.8-398.5c-66.6-58.6-112.4-102-221.1-210
			c-77.4-77.1-88.9-86.8-94.6-83.8c-3.7,2-33.7,31.3-67,65.3c-385,394.1-634.8,560-923.9,613.2c-188.5,34.7-384,12.8-561.7-62.6
			c-297.9-126.5-516-392.8-576.9-704.4c-13.8-69.7-17.2-107-17.2-190.2c0-131.9,18.2-242,59.2-358.4
			c113.8-324.5,385.4-547.6,728.3-598.8c213.4-32,450,8.8,658.7,112.8c81.8,40.7,150.8,84.1,236.6,148.4
			c108,80.4,187.1,151.5,357.1,319.7c59.2,58.9,110.1,107,112.4,107c2.7,0,25.9-22.2,51.8-49.1c57.9-60.2,199.2-196.6,259.2-250.1
			c276-246,485.3-355.1,749.2-391.4c19.5-2.7,65.3-4,117.8-4c71.7,0,93.9,1.3,134.6,7.7c218.8,33.7,405.6,127.6,558.4,280
			c153.8,153.8,249.7,351.7,277,571.8c6.4,52.2,5.4,189.5-2,242.3c-26.3,188.8-92.6,359.1-191.2,490.4c-32,43.1-99,111.7-143,146.4
			c-122.5,97.6-281.7,163.6-463.8,191.8C3850.1,4811.8,3708.1,4814.5,3649.9,4807.4z M1519.1,4403.9
			c113.1-23.9,227.5-78.4,339.9-161.9c40.1-29.6,100-78.8,139-114.1c49.1-44.8,296.2-286.1,296.2-289.4
			c0-5.4-215.4-218.4-267.6-265.2c-165.6-147.4-318.7-240.6-462.8-282.4c-68-19.5-108-24.9-190.2-24.9c-63.9,0-79.1,1-112.4,7.7
			c-198.6,40.1-344,169.6-407.2,362.5c-53.9,164.6-43.8,320.7,30.3,466.1c84.8,166.9,237.6,277.3,426.1,308
			c21.2,3.4,49.1,4.4,98.6,3.4C1466.9,4412.6,1484.7,4410.9,1519.1,4403.9z M3828.9,4410.3c110.1-15.5,203.6-57.6,283.1-127.2
			c147.8-129.2,218.4-357.8,174-564.4c-45.1-210.4-207-380.7-413.6-435.9c-49.8-13.1-93.9-18.5-152.8-18.5
			c-104.3,0-188.1,20.9-292.8,72.4c-110.1,53.9-216.1,131.6-349,256.1c-83.5,78.1-250.1,242-251.1,247
			c-1,5.4,156.8,166.6,224.8,229.2c229.5,212,410.9,314,605.8,341.3C3701,4416.3,3785.9,4416.3,3828.9,4410.3z"/>
	</g>
</g>
</svg>
