<?xml version="1.0" encoding="utf-8"?>
<!-- Generator: Adobe Illustrator 23.0.4, SVG Export Plug-In . SVG Version: 6.00 Build 0)  -->
<svg version="1.1" xmlns="http://www.w3.org/2000/svg" xmlns:xlink="http://www.w3.org/1999/xlink" x="0px" y="0px"
	 viewBox="0 0 512 512" style="enable-background:new 0 0 512 512;" xml:space="preserve">
<style type="text/css">
	.st0{display:none;}
	.st1{display:inline;}
	.st2{fill:#FFFFFF;}
</style>
<g id="Layer_1" class="st0">
	<g class="st1">
		<path d="M29.1,164.4c0-1.3-1.3-2.6-2.5-2.6c-11.1,0-12.3,0-12.3-3V72.2c0-1.7,1.7-3.4,3.8-3.4h93.1c1.7,0,3.4,1.7,3.4,3.4v307.7
			c0,1.7-1.3,3.4-3,3.4H32c-1.3,0-3-1.3-3-3V164.4z"/>
		<path d="M129.3,161.4c0-53.1,34.9-92.7,88-92.7s88.8,39.5,88.8,92.7v127.9c0,54.4-36.1,93.9-88.8,93.9c-53.1,0-88-39.5-88-93.9
			V161.4z M210.9,287.7c0,5.5,2.6,8.5,6.8,8.5c3.8,0,6.8-3,6.8-8.5V163.1c0-5.5-2.5-8.5-6.8-8.5s-6.8,3-6.8,8.1V287.7z"/>
		<path d="M318.9,161.4c0-53.1,34.9-92.7,88-92.7s88.8,39.5,88.8,92.7v127.9c0,54.4-36.1,93.9-88.8,93.9c-53.1,0-88-39.5-88-93.9
			V161.4z M400.5,287.7c0,5.5,2.5,8.5,6.8,8.5c3.8,0,6.8-3,6.8-8.5V163.1c0-5.5-2.6-8.5-6.8-8.5s-6.8,3-6.8,8.1V287.7z"/>
	</g>
</g>
<g id="_x31_00">
	<g>
		<path class="st2" d="M199,171.3l14.3-19.1c8.6-9.6,22.6-17.4,39.6-17.4c28.1,0,46,17.5,46,40.2c0,8.8-4,16.3-9.5,22.1
			c-4.9,5-12.7,10.4-21.6,16.2c28.4,6.1,45,24.1,45,46.1c-0.1,48.7-59.1,69.5-80,69.5c-14.3,0-27.1-5.8-31.6-10.4
			c-3.9-4-5-6.9-5-10.3c0.2-5,4.2-9.8,7.1-12c2.7-2,5.6-2.2,8.6,0.4c7.8,7,20.3,16.5,37.5,16.5c20.5,0,35.1-15.3,35.1-44.2
			c-0.2-27.7-20.5-38.5-39.2-38.5c-6.7,0-14.8,1.6-19.5,3l-2.1-9.3c26.9-8.8,47.4-20.4,47.4-42.3c0-17.9-11.6-27.8-28.2-27.8
			c-16.5,0-28.9,11.7-37.3,23.5L199,171.3z"/>
	</g>
</g>
</svg>
