<?xml version="1.0" encoding="utf-8"?>
<!-- Generator: Adobe Illustrator 23.0.4, SVG Export Plug-In . SVG Version: 6.00 Build 0)  -->
<svg version="1.1" xmlns="http://www.w3.org/2000/svg" xmlns:xlink="http://www.w3.org/1999/xlink" x="0px" y="0px"
	 viewBox="0 0 512 512" style="enable-background:new 0 0 512 512;" xml:space="preserve">
<style type="text/css">
	.st0{display:none;}
	.st1{display:inline;}
	.st2{fill:#FFFFFF;}
</style>
<g id="Layer_1" class="st0">
	<g class="st1">
		<path d="M29.1,164.4c0-1.3-1.3-2.6-2.5-2.6c-11.1,0-12.3,0-12.3-3V72.2c0-1.7,1.7-3.4,3.8-3.4h93.1c1.7,0,3.4,1.7,3.4,3.4v307.7
			c0,1.7-1.3,3.4-3,3.4H32c-1.3,0-3-1.3-3-3V164.4z"/>
		<path d="M129.3,161.4c0-53.1,34.9-92.7,88-92.7s88.8,39.5,88.8,92.7v127.9c0,54.4-36.1,93.9-88.8,93.9c-53.1,0-88-39.5-88-93.9
			V161.4z M210.9,287.7c0,5.5,2.6,8.5,6.8,8.5c3.8,0,6.8-3,6.8-8.5V163.1c0-5.5-2.5-8.5-6.8-8.5s-6.8,3-6.8,8.1V287.7z"/>
		<path d="M318.9,161.4c0-53.1,34.9-92.7,88-92.7s88.8,39.5,88.8,92.7v127.9c0,54.4-36.1,93.9-88.8,93.9c-53.1,0-88-39.5-88-93.9
			V161.4z M400.5,287.7c0,5.5,2.5,8.5,6.8,8.5c3.8,0,6.8-3,6.8-8.5V163.1c0-5.5-2.6-8.5-6.8-8.5s-6.8,3-6.8,8.1V287.7z"/>
	</g>
</g>
<g id="_x31_00">
	<g>
		<path class="st2" d="M266,266.6c-12.1-4.3-31.4-18.3-31.4-35.3c0-11.5,6.8-20.9,26.7-36.3c17.7-13.4,25.7-21.9,25.7-32.2
			c0-10.2-6.8-18.6-19.3-18.6c-20.3,0-32.6,19.9-36.9,19.9c-4.9,0-13.7-7.5-13.7-15.4c0-4.5,1.7-7.5,5.9-11.5
			c9.7-8.2,23.6-11.1,33.2-11.1c28,0,48.8,24,48.8,47.8c0,12.4-4,23.5-21.4,37.3c-16.2,13-23.3,18.5-23.3,28
			c0,7.5,3.9,12.6,11.7,20.1L266,266.6z M258.5,329.4c-11.3,0-19.6-8.3-19.6-20.3c0-11.4,8-20.2,19.6-20.2
			c11.2,0,19.7,8.8,19.7,20.2C278.1,321.1,269.7,329.4,258.5,329.4z"/>
	</g>
</g>
</svg>
