<?xml version="1.0" encoding="utf-8"?>
<!-- Generator: Adobe Illustrator 23.0.4, SVG Export Plug-In . SVG Version: 6.00 Build 0)  -->
<svg version="1.1" xmlns="http://www.w3.org/2000/svg" xmlns:xlink="http://www.w3.org/1999/xlink" x="0px" y="0px"
	 viewBox="0 0 512 512" style="enable-background:new 0 0 512 512;" xml:space="preserve">
<style type="text/css">
	.st0{display:none;}
	.st1{display:inline;}
	.st2{fill:#FFFFFF;}
</style>
<g id="Layer_1" class="st0">
	<g class="st1">
		<path d="M29.1,164.4c0-1.3-1.3-2.6-2.5-2.6c-11.1,0-12.3,0-12.3-3V72.2c0-1.7,1.7-3.4,3.8-3.4h93.1c1.7,0,3.4,1.7,3.4,3.4v307.7
			c0,1.7-1.3,3.4-3,3.4H32c-1.3,0-3-1.3-3-3V164.4z"/>
		<path d="M129.3,161.4c0-53.1,34.9-92.7,88-92.7s88.8,39.5,88.8,92.7v127.9c0,54.4-36.1,93.9-88.8,93.9c-53.1,0-88-39.5-88-93.9
			V161.4z M210.9,287.7c0,5.5,2.6,8.5,6.8,8.5c3.8,0,6.8-3,6.8-8.5V163.1c0-5.5-2.5-8.5-6.8-8.5s-6.8,3-6.8,8.1V287.7z"/>
		<path d="M318.9,161.4c0-53.1,34.9-92.7,88-92.7s88.8,39.5,88.8,92.7v127.9c0,54.4-36.1,93.9-88.8,93.9c-53.1,0-88-39.5-88-93.9
			V161.4z M400.5,287.7c0,5.5,2.5,8.5,6.8,8.5c3.8,0,6.8-3,6.8-8.5V163.1c0-5.5-2.6-8.5-6.8-8.5s-6.8,3-6.8,8.1V287.7z"/>
	</g>
</g>
<g id="_x31_00">
	<g>
		<path class="st2" d="M233.5,138.4l1.8,2.5l-8.1,21.6h-70c-2.7,15.9-6.6,38.6-9.4,52.9c12-4.4,28.6-8.8,36.2-8.8
			c37.2,0,56.9,25.8,56.9,50.9c0,18.1-7.7,35.7-26.6,50.7c-16.6,13-37.5,20.8-53.8,20.8c-13.7,0-25.1-5.4-31.3-11.4
			c-4.6-4.1-5.8-6.6-5.3-10.5c0-3.1,2.7-8.1,6.8-11.2c2.9-1.9,5.8-2.3,9,0.3c8.4,7.5,19.4,16.9,38.1,16.9c24,0,35.4-20.7,35.4-43
			c0-26.5-16.2-45.2-48.4-45.2c-12.5,0-22.4,2.8-30.2,5.3l-1-1.3c4.8-24.1,11.5-65.7,14.9-90.4H233.5z"/>
		<path class="st2" d="M380.2,138.4l1.8,2.5l-8.1,21.6h-70c-2.7,15.9-6.6,38.6-9.4,52.9c12-4.4,28.6-8.8,36.2-8.8
			c37.2,0,56.9,25.8,56.9,50.9c0,18.1-7.7,35.7-26.6,50.7c-16.6,13-37.5,20.8-53.8,20.8c-13.7,0-25.1-5.4-31.3-11.4
			c-4.6-4.1-5.8-6.6-5.3-10.5c0-3.1,2.7-8.1,6.8-11.2c2.9-1.9,5.8-2.3,9,0.3c8.4,7.5,19.4,16.9,38.1,16.9c24,0,35.4-20.7,35.4-43
			c0-26.5-16.2-45.2-48.4-45.2c-12.5,0-22.4,2.8-30.2,5.3l-1-1.3c4.8-24.1,11.5-65.7,14.9-90.4H380.2z"/>
	</g>
</g>
<g id="Layer_3" class="st0">
	<g class="st1">
		<path class="st2" d="M124.4,250.1c76.5,0,152.8,0,229.2,0c0.1,0.9,0.1,1.6,0.2,2.7c0.8,0,1.5,0,2.3,0c10.5,0.1,21-0.2,31.5,0.3
			c18.8,0.9,35,15.1,39.1,33.5c5.5,24.9-10.9,49.2-36.2,52.4c-13.3,1.7-26.9,1.8-39.5-4.3c-3.1-1.5-6.1-3.3-9.3-5
			c-4.5,9.7-10.1,18.7-16.9,27c-6.8,8.2-14.5,15.4-23,22c0.7,0,1.4,0,2.2,0c26.1,0,52.3,0,78.4,0c1.5,0,3,0.1,4.4,0.5
			c4.7,1.3,7.6,5.8,7,10.6c-0.6,4.9-4.8,8.6-10,8.6c-10.6,0-21.3,0-31.9,0c-0.7,0-1.5,0-2.2,0c-1.6,5.7-3.4,7.1-9.3,7.1
			c-67.8,0-135.5,0-203.3,0c-3.3,0-6.1-0.9-7.6-4c-0.4-0.9-0.6-1.9-1-3.1c-0.7,0-1.4,0-2.1,0c-10.6,0-21.3,0-31.9,0
			c-7.7,0-12.5-7.7-9-14.3c1.5-2.8,3.8-4.6,7-5.1c1.2-0.2,2.4-0.2,3.5-0.2c26.1,0,52.1,0,78.2,0c0.7,0,1.4,0,2.2,0
			c0-0.1,0.1-0.3,0.1-0.4c-1.1-0.8-2.2-1.7-3.3-2.5c-23.6-18.3-38.3-42.4-45.3-71.3c-3.1-12.8-3.6-25.8-3.4-38.9
			C124.4,260.6,124.4,255.4,124.4,250.1z M353.7,275.5c-0.1,0.5-0.1,0.8-0.1,1c-0.1,9.8-1.4,19.4-3.6,28.9c-0.1,0.6,0.3,1.6,0.7,2
			c4.7,4.7,10.2,8,16.8,8.8c5.9,0.7,11.8,0.6,17.8,0.5c12-0.2,21.5-11.9,19.4-23.8c-1.8-10.4-10.1-17.4-20.7-17.5
			c-7.7-0.1-15.4,0-23.1,0C358.6,275.5,356.2,275.5,353.7,275.5z"/>
		<path class="st2" d="M263.9,138.6c0.8,9.6-2.6,18.1-6.9,26.3c-2.7,5.1-5.4,10.1-8.3,15.1c-4.8,8.4-5.4,17.3-3.4,26.5
			c0.6,3,1.8,5.8,2.8,8.7c1,2.6,2.2,5.2,0.2,7.8c-2.3,3-5.7,3.6-9.2,2.9c-7.3-1.5-11.8-6.3-14.6-13c-3.4-8-3.7-16.3-2.5-24.8
			c1.2-9.1,4.6-17.3,9-25.2c2.4-4.3,4.7-8.7,7-13c3.9-7.2,4.7-14.6,2.4-22.4c-1.5-5.1-2.8-10.2-4.1-15.4c-0.7-2.6-0.1-3.7,2.4-4.5
			c4.8-1.7,9.4-1.3,13.7,1.7c6,4.2,9.2,10.1,10.2,17.2C263.3,130.4,263.5,134.5,263.9,138.6z"/>
		<path class="st2" d="M316.7,139.6c-0.1,9.3-3.1,17.8-7.4,25.8c-1.2,2.3-2.5,4.6-4,6.8c-4.2,6.1-4.8,12.8-3.3,19.7
			c0.9,4.3,2.2,8.4,3.5,12.6c1,3.3-0.9,6.1-4.3,6.2c-8.7,0.3-14.4-3.3-17.7-11.4c-4.6-11.2-3.9-22.4,1.4-33.2
			c2.3-4.6,4.8-9.1,7.4-13.4c4.8-8,5.9-16.3,2.9-25.1c-0.9-2.7-1.3-5.4-1.9-8.2c-0.4-2,0.2-3,2.1-3.8c5.6-2.2,12.5,0.1,16.5,5.6
			c3,4.1,3.7,8.9,4.4,13.8C316.6,136.4,316.6,138,316.7,139.6z"/>
		<path class="st2" d="M205.9,137.4c0,12.5-3.6,21.5-8.5,30.1c-0.8,1.5-1.6,3-2.6,4.3c-4.6,6.5-5.1,13.7-3.4,21.1
			c0.9,3.9,2,7.9,3.4,11.7c1,2.6-0.9,6-4.2,6.1c-8.9,0.1-14-2.5-17.6-10.6c-5.4-12.3-4.2-24.3,2-36c2.3-4.3,4.7-8.5,7.1-12.7
			c4-6.9,5-14.1,2.7-21.8c-0.9-3-1.6-6.2-2.2-9.3c-0.7-3.1,0-4,3-4.9c7-2.1,15.2,2.6,17.9,10.3C205.1,130.1,205.9,134.8,205.9,137.4
			z"/>
		<path class="st2" d="M353.7,275.5c2.5,0,4.9,0,7.2,0c7.7,0,15.4,0,23.1,0c10.7,0.1,18.9,7.1,20.7,17.5
			c2.1,11.8-7.4,23.5-19.4,23.8c-5.9,0.1-11.9,0.2-17.8-0.5c-6.5-0.8-12.1-4.1-16.8-8.8c-0.5-0.5-0.9-1.4-0.7-2
			c2.2-9.5,3.5-19.2,3.6-28.9C353.6,276.3,353.7,276.1,353.7,275.5z"/>
	</g>
</g>
<g id="Layer_4" class="st0">
	<g transform="translate(0.000000,640.000000) scale(0.100000,-0.100000)" class="st1">
		<path class="st2" d="M3649.9,4807.4c-259.8-31.3-506.2-157.2-779.8-398.5c-66.6-58.6-112.4-102-221.1-210
			c-77.4-77.1-88.9-86.8-94.6-83.8c-3.7,2-33.7,31.3-67,65.3c-385,394.1-634.8,560-923.9,613.2c-188.5,34.7-384,12.8-561.7-62.6
			c-297.9-126.5-516-392.8-576.9-704.4c-13.8-69.7-17.2-107-17.2-190.2c0-131.9,18.2-242,59.2-358.4
			c113.8-324.5,385.4-547.6,728.3-598.8c213.4-32,450,8.8,658.7,112.8c81.8,40.7,150.8,84.1,236.6,148.4
			c108,80.4,187.1,151.5,357.1,319.7c59.2,58.9,110.1,107,112.4,107c2.7,0,25.9-22.2,51.8-49.1c57.9-60.2,199.2-196.6,259.2-250.1
			c276-246,485.3-355.1,749.2-391.4c19.5-2.7,65.3-4,117.8-4c71.7,0,93.9,1.3,134.6,7.7c218.8,33.7,405.6,127.6,558.4,280
			c153.8,153.8,249.7,351.7,277,571.8c6.4,52.2,5.4,189.5-2,242.3c-26.3,188.8-92.6,359.1-191.2,490.4c-32,43.1-99,111.7-143,146.4
			c-122.5,97.6-281.7,163.6-463.8,191.8C3850.1,4811.8,3708.1,4814.5,3649.9,4807.4z M1519.1,4403.9
			c113.1-23.9,227.5-78.4,339.9-161.9c40.1-29.6,100-78.8,139-114.1c49.1-44.8,296.2-286.1,296.2-289.4
			c0-5.4-215.4-218.4-267.6-265.2c-165.6-147.4-318.7-240.6-462.8-282.4c-68-19.5-108-24.9-190.2-24.9c-63.9,0-79.1,1-112.4,7.7
			c-198.6,40.1-344,169.6-407.2,362.5c-53.9,164.6-43.8,320.7,30.3,466.1c84.8,166.9,237.6,277.3,426.1,308
			c21.2,3.4,49.1,4.4,98.6,3.4C1466.9,4412.6,1484.7,4410.9,1519.1,4403.9z M3828.9,4410.3c110.1-15.5,203.6-57.6,283.1-127.2
			c147.8-129.2,218.4-357.8,174-564.4c-45.1-210.4-207-380.7-413.6-435.9c-49.8-13.1-93.9-18.5-152.8-18.5
			c-104.3,0-188.1,20.9-292.8,72.4c-110.1,53.9-216.1,131.6-349,256.1c-83.5,78.1-250.1,242-251.1,247
			c-1,5.4,156.8,166.6,224.8,229.2c229.5,212,410.9,314,605.8,341.3C3701,4416.3,3785.9,4416.3,3828.9,4410.3z"/>
	</g>
</g>
</svg>
