<svg id="_100" data-name="100" xmlns="http://www.w3.org/2000/svg" viewBox="0 0 512 512"><title>scrummy-100</title><path d="M62.82,325.3v-8.89c32.87-2,34.72-3.81,34.72-26.15v-114c0-15.3-2.69-16-15.73-17.27l-13.68-1.5v-7.93c20.4-3.19,41.28-8.21,57-14.75V290.26c0,22.69,1.8,24.16,34.86,26.15v8.89Z" style="fill:#fff"/><path d="M256.39,134.8c46.08,0,62.88,51,62.88,96.9,0,43.8-16.8,97.2-62.88,97.2-46.82,0-63.67-50.26-63.67-96.9C192.72,188.09,210,134.8,256.39,134.8Zm-.11,10.93c-26.55,0-33.07,43.94-33.07,85.56s8,86.68,33.24,86.68C282.2,318,289,273.54,289,231.59,289,189.29,281.74,145.73,256.28,145.73Z" style="fill:#fff"/><path d="M403.09,134.8c46.08,0,62.88,51,62.88,96.9,0,43.8-16.8,97.2-62.88,97.2-46.82,0-63.67-50.26-63.67-96.9C339.42,188.09,356.68,134.8,403.09,134.8ZM403,145.73c-26.55,0-33.07,43.94-33.07,85.56s8,86.68,33.23,86.68c25.76,0,32.53-44.43,32.53-86.38C435.67,189.29,428.44,145.73,403,145.73Z" style="fill:#fff"/></svg>