<?xml version="1.0" encoding="utf-8"?>
<!-- Generator: Adobe Illustrator 23.0.4, SVG Export Plug-In . SVG Version: 6.00 Build 0)  -->
<svg version="1.1" xmlns="http://www.w3.org/2000/svg" xmlns:xlink="http://www.w3.org/1999/xlink" x="0px" y="0px"
	 viewBox="0 0 512 512" style="enable-background:new 0 0 512 512;" xml:space="preserve">
<style type="text/css">
	.st0{display:none;}
	.st1{display:inline;}
	.st2{fill:#FFFFFF;}
</style>
<g id="Layer_1" class="st0">
	<g class="st1">
		<path d="M29.1,164.4c0-1.3-1.3-2.6-2.5-2.6c-11.1,0-12.3,0-12.3-3V72.2c0-1.7,1.7-3.4,3.8-3.4h93.1c1.7,0,3.4,1.7,3.4,3.4v307.7
			c0,1.7-1.3,3.4-3,3.4H32c-1.3,0-3-1.3-3-3V164.4z"/>
		<path d="M129.3,161.4c0-53.1,34.9-92.7,88-92.7s88.8,39.5,88.8,92.7v127.9c0,54.4-36.1,93.9-88.8,93.9c-53.1,0-88-39.5-88-93.9
			V161.4z M210.9,287.7c0,5.5,2.6,8.5,6.8,8.5c3.8,0,6.8-3,6.8-8.5V163.1c0-5.5-2.5-8.5-6.8-8.5s-6.8,3-6.8,8.1V287.7z"/>
		<path d="M318.9,161.4c0-53.1,34.9-92.7,88-92.7s88.8,39.5,88.8,92.7v127.9c0,54.4-36.1,93.9-88.8,93.9c-53.1,0-88-39.5-88-93.9
			V161.4z M400.5,287.7c0,5.5,2.5,8.5,6.8,8.5c3.8,0,6.8-3,6.8-8.5V163.1c0-5.5-2.6-8.5-6.8-8.5s-6.8,3-6.8,8.1V287.7z"/>
	</g>
</g>
<g id="_x31_00">
	<g>
		<path class="st2" d="M306.9,138.4l1.8,2.5l-8.1,21.6h-70c-2.7,15.9-6.6,38.6-9.4,52.9c12-4.4,28.6-8.8,36.2-8.8
			c37.2,0,56.9,25.8,56.9,50.9c0,18.1-7.7,35.7-26.6,50.7c-16.6,13-37.5,20.8-53.8,20.8c-13.7,0-25.1-5.4-31.3-11.4
			c-4.6-4.1-5.8-6.6-5.3-10.5c0-3.1,2.7-8.1,6.8-11.2c2.9-1.9,5.8-2.3,9,0.3c8.4,7.5,19.4,16.9,38.1,16.9c24,0,35.4-20.7,35.4-43
			c0-26.5-16.2-45.2-48.4-45.2c-12.5,0-22.4,2.8-30.2,5.3l-1-1.3c4.8-24.1,11.5-65.7,14.9-90.4H306.9z"/>
	</g>
</g>
</svg>
