<?xml version="1.0" encoding="utf-8"?>
<!-- Generator: Adobe Illustrator 23.0.4, SVG Export Plug-In . SVG Version: 6.00 Build 0)  -->
<svg version="1.1" xmlns="http://www.w3.org/2000/svg" xmlns:xlink="http://www.w3.org/1999/xlink" x="0px" y="0px"
	 viewBox="0 0 512 512" style="enable-background:new 0 0 512 512;" xml:space="preserve">
<style type="text/css">
	.st0{display:none;}
	.st1{display:inline;}
	.st2{fill:#FFFFFF;}
</style>
<g id="Layer_1" class="st0">
	<g class="st1">
		<path d="M29.1,164.4c0-1.3-1.3-2.6-2.5-2.6c-11.1,0-12.3,0-12.3-3V72.2c0-1.7,1.7-3.4,3.8-3.4h93.1c1.7,0,3.4,1.7,3.4,3.4v307.7
			c0,1.7-1.3,3.4-3,3.4H32c-1.3,0-3-1.3-3-3V164.4z"/>
		<path d="M129.3,161.4c0-53.1,34.9-92.7,88-92.7s88.8,39.5,88.8,92.7v127.9c0,54.4-36.1,93.9-88.8,93.9c-53.1,0-88-39.5-88-93.9
			V161.4z M210.9,287.7c0,5.5,2.6,8.5,6.8,8.5c3.8,0,6.8-3,6.8-8.5V163.1c0-5.5-2.5-8.5-6.8-8.5s-6.8,3-6.8,8.1V287.7z"/>
		<path d="M318.9,161.4c0-53.1,34.9-92.7,88-92.7s88.8,39.5,88.8,92.7v127.9c0,54.4-36.1,93.9-88.8,93.9c-53.1,0-88-39.5-88-93.9
			V161.4z M400.5,287.7c0,5.5,2.5,8.5,6.8,8.5c3.8,0,6.8-3,6.8-8.5V163.1c0-5.5-2.6-8.5-6.8-8.5s-6.8,3-6.8,8.1V287.7z"/>
	</g>
</g>
<g id="_x31_00">
	<g>
		<path class="st2" d="M220.5,271.1v22c0,19.5,1.3,21.2,22.9,23.2v8.9h-72.8v-8.9c22.2-2,23.6-4.2,23.6-23.7v-21.6h-78.8v-9.6
			c29.1-41,60.9-85.6,90.1-125.7h15.1v120.3h29.1v14.9H220.5z M194.2,169.1c-18.1,26.2-39,56.5-59.6,87.1h59.6V169.1z"/>
		<path class="st2" d="M329.7,134.8c46.1,0,62.9,51,62.9,96.9c0,43.8-16.8,97.2-62.9,97.2c-46.8,0-63.7-50.3-63.7-96.9
			C266.1,188.1,283.3,134.8,329.7,134.8z M329.6,145.7c-26.5,0-33.1,43.9-33.1,85.6c0,41.7,8,86.7,33.2,86.7
			c25.8,0,32.5-44.4,32.5-86.4C362.3,189.3,355.1,145.7,329.6,145.7z"/>
	</g>
</g>
</svg>
