<?xml version="1.0" encoding="utf-8"?>
<!-- Generator: Adobe Illustrator 23.0.4, SVG Export Plug-In . SVG Version: 6.00 Build 0)  -->
<svg version="1.1" xmlns="http://www.w3.org/2000/svg" xmlns:xlink="http://www.w3.org/1999/xlink" x="0px" y="0px"
	 viewBox="0 0 512 512" style="enable-background:new 0 0 512 512;" xml:space="preserve">
<style type="text/css">
	.st0{display:none;}
	.st1{display:inline;}
	.st2{fill:#FFFFFF;}
</style>
<g id="Layer_1" class="st0">
	<g class="st1">
		<path d="M29.1,164.4c0-1.3-1.3-2.6-2.5-2.6c-11.1,0-12.3,0-12.3-3V72.2c0-1.7,1.7-3.4,3.8-3.4h93.1c1.7,0,3.4,1.7,3.4,3.4v307.7
			c0,1.7-1.3,3.4-3,3.4H32c-1.3,0-3-1.3-3-3V164.4z"/>
		<path d="M129.3,161.4c0-53.1,34.9-92.7,88-92.7s88.8,39.5,88.8,92.7v127.9c0,54.4-36.1,93.9-88.8,93.9c-53.1,0-88-39.5-88-93.9
			V161.4z M210.9,287.7c0,5.5,2.6,8.5,6.8,8.5c3.8,0,6.8-3,6.8-8.5V163.1c0-5.5-2.5-8.5-6.8-8.5s-6.8,3-6.8,8.1V287.7z"/>
		<path d="M318.9,161.4c0-53.1,34.9-92.7,88-92.7s88.8,39.5,88.8,92.7v127.9c0,54.4-36.1,93.9-88.8,93.9c-53.1,0-88-39.5-88-93.9
			V161.4z M400.5,287.7c0,5.5,2.5,8.5,6.8,8.5c3.8,0,6.8-3,6.8-8.5V163.1c0-5.5-2.6-8.5-6.8-8.5s-6.8,3-6.8,8.1V287.7z"/>
	</g>
</g>
<g id="_x31_00">
	<g>
		<path class="st2" d="M212.1,239.2l-19.2,9.8c-6.7,3.4-12.3,4.6-17.9,4.6c-32.9,0-54.8-24.8-54.8-56.2c0-28.9,22.5-62.6,62.9-62.6
			c39.2,0,61.4,34.4,61.4,75.2c0,55-35.1,95.7-76.4,111.7c-12.1,4.7-28.5,7.4-37.2,8.1l-2.3-9.2C172,312.1,202.5,284,212.1,239.2z
			 M179.1,145.7c-22.1,0.1-30,20.8-30,42.6c0,26.3,14.6,48.2,39.3,48.2c10.2,0,19.2-3.6,25.1-7.8c1-6.8,1.3-14.1,1.3-19.9
			C214.7,181.6,207.1,145.6,179.1,145.7z"/>
		<path class="st2" d="M329.7,134.8c46.1,0,62.9,51,62.9,96.9c0,43.8-16.8,97.2-62.9,97.2c-46.8,0-63.7-50.3-63.7-96.9
			C266.1,188.1,283.3,134.8,329.7,134.8z M329.6,145.7c-26.5,0-33.1,43.9-33.1,85.6c0,41.7,8,86.7,33.2,86.7
			c25.8,0,32.5-44.4,32.5-86.4C362.3,189.3,355.1,145.7,329.6,145.7z"/>
	</g>
</g>
</svg>
